STARTFONT 2.1
COMMENT
COMMENT Converted from OpenType font "hyundai-led.ttf" by "otf2bdf 3.0".
COMMENT
FONT -FreeType-Hyundai LED-Medium-R-Normal--11-80-100-100-P-71-ISO10646-1
SIZE 8 100 100
FONTBOUNDINGBOX 8 13 0 0
STARTPROPERTIES 19
FOUNDRY "FreeType"
FAMILY_NAME "Hyundai LED"
WEIGHT_NAME "Medium"
SLANT "R"
SETWIDTH_NAME "Normal"
ADD_STYLE_NAME ""
PIXEL_SIZE 11
POINT_SIZE 80
RESOLUTION_X 100
RESOLUTION_Y 100
SPACING "P"
AVERAGE_WIDTH 71
CHARSET_REGISTRY "ISO10646"
CHARSET_ENCODING "1"
FONT_ASCENT 12
FONT_DESCENT 0
COPYRIGHT "Copyright Muhammad Evanalexander 2020"
_OTF_FONTFILE "hyundai-led.ttf"
_OTF_PSNAME "Hyundai-LED"
ENDPROPERTIES
CHARS 42
STARTCHAR 0020
ENCODING 32
SWIDTH 360 0
DWIDTH 4 0
BBX 0 0 0 0
BITMAP
ENDCHAR
STARTCHAR 002C
ENCODING 44
SWIDTH 900 0
DWIDTH 10 0
BBX 7 6 1 5
BITMAP
10
00
92
34
00
10
ENDCHAR
STARTCHAR 0030
ENCODING 48
SWIDTH 900 0
DWIDTH 10 0
BBX 7 11 1 0
BITMAP
34
00
82
82
00
82
00
82
82
00
34
ENDCHAR
STARTCHAR 0031
ENCODING 49
SWIDTH 810 0
DWIDTH 9 0
BBX 5 11 2 0
BITMAP
20
00
A0
20
00
20
00
20
20
00
A8
ENDCHAR
STARTCHAR 0032
ENCODING 50
SWIDTH 900 0
DWIDTH 10 0
BBX 7 11 1 0
BITMAP
34
00
82
02
00
14
00
20
80
00
B6
ENDCHAR
STARTCHAR 0033
ENCODING 51
SWIDTH 900 0
DWIDTH 10 0
BBX 7 11 1 0
BITMAP
34
00
82
02
00
14
00
02
82
00
34
ENDCHAR
STARTCHAR 0034
ENCODING 52
SWIDTH 900 0
DWIDTH 10 0
BBX 7 11 1 0
BITMAP
04
00
14
24
00
84
00
B6
04
00
04
ENDCHAR
STARTCHAR 0035
ENCODING 53
SWIDTH 900 0
DWIDTH 10 0
BBX 7 11 1 0
BITMAP
B6
00
80
80
00
B4
00
02
82
00
34
ENDCHAR
STARTCHAR 0036
ENCODING 54
SWIDTH 900 0
DWIDTH 10 0
BBX 7 11 1 0
BITMAP
34
00
82
80
00
B4
00
82
82
00
34
ENDCHAR
STARTCHAR 0037
ENCODING 55
SWIDTH 900 0
DWIDTH 10 0
BBX 7 11 1 0
BITMAP
B6
00
02
04
00
10
00
10
10
00
10
ENDCHAR
STARTCHAR 0038
ENCODING 56
SWIDTH 900 0
DWIDTH 10 0
BBX 7 11 1 0
BITMAP
34
00
82
82
00
34
00
82
82
00
34
ENDCHAR
STARTCHAR 0039
ENCODING 57
SWIDTH 900 0
DWIDTH 10 0
BBX 7 11 1 0
BITMAP
34
00
82
82
00
36
00
02
82
00
34
ENDCHAR
STARTCHAR 003A
ENCODING 58
SWIDTH 630 0
DWIDTH 7 0
BBX 3 7 2 2
BITMAP
A0
A0
00
00
A0
00
A0
ENDCHAR
STARTCHAR 003C
ENCODING 60
SWIDTH 900 0
DWIDTH 10 0
BBX 7 11 1 2
BITMAP
10
00
34
00
92
10
00
10
10
00
10
ENDCHAR
STARTCHAR 003D
ENCODING 61
SWIDTH 900 0
DWIDTH 10 0
BBX 7 6 1 2
BITMAP
10
00
34
92
00
10
ENDCHAR
STARTCHAR 003E
ENCODING 62
SWIDTH 900 0
DWIDTH 10 0
BBX 7 11 1 2
BITMAP
10
00
10
00
10
10
00
92
34
00
10
ENDCHAR
STARTCHAR 0041
ENCODING 65
SWIDTH 900 0
DWIDTH 10 0
BBX 7 11 1 0
BITMAP
10
00
24
82
00
B6
00
82
82
00
82
ENDCHAR
STARTCHAR 0042
ENCODING 66
SWIDTH 900 0
DWIDTH 10 0
BBX 7 11 1 0
BITMAP
B4
00
82
82
00
B4
00
82
82
00
B4
ENDCHAR
STARTCHAR 0043
ENCODING 67
SWIDTH 900 0
DWIDTH 10 0
BBX 7 11 1 0
BITMAP
34
00
82
80
00
80
00
80
82
00
34
ENDCHAR
STARTCHAR 0044
ENCODING 68
SWIDTH 900 0
DWIDTH 10 0
BBX 7 11 1 0
BITMAP
B4
00
82
82
00
82
00
82
82
00
B4
ENDCHAR
STARTCHAR 0045
ENCODING 69
SWIDTH 900 0
DWIDTH 10 0
BBX 7 11 1 0
BITMAP
B6
00
80
80
00
B4
00
80
80
00
B6
ENDCHAR
STARTCHAR 0046
ENCODING 70
SWIDTH 900 0
DWIDTH 10 0
BBX 7 11 1 0
BITMAP
B6
00
80
80
00
B4
00
80
80
00
80
ENDCHAR
STARTCHAR 0047
ENCODING 71
SWIDTH 900 0
DWIDTH 10 0
BBX 7 11 1 0
BITMAP
34
00
82
80
00
96
00
84
34
00
04
ENDCHAR
STARTCHAR 0048
ENCODING 72
SWIDTH 900 0
DWIDTH 10 0
BBX 7 11 1 0
BITMAP
82
00
82
82
00
B6
00
82
82
00
82
ENDCHAR
STARTCHAR 0049
ENCODING 73
SWIDTH 810 0
DWIDTH 9 0
BBX 5 11 2 0
BITMAP
A8
00
20
20
00
20
00
20
20
00
A8
ENDCHAR
STARTCHAR 004A
ENCODING 74
SWIDTH 810 0
DWIDTH 9 0
BBX 6 11 1 0
BITMAP
34
00
04
04
00
04
00
04
84
00
30
ENDCHAR
STARTCHAR 004B
ENCODING 75
SWIDTH 900 0
DWIDTH 10 0
BBX 7 11 1 0
BITMAP
82
00
84
90
00
A0
00
90
84
00
82
ENDCHAR
STARTCHAR 004C
ENCODING 76
SWIDTH 900 0
DWIDTH 10 0
BBX 7 11 1 0
BITMAP
80
00
80
80
00
80
00
80
80
00
B6
ENDCHAR
STARTCHAR 004D
ENCODING 77
SWIDTH 900 0
DWIDTH 10 0
BBX 7 11 1 0
BITMAP
82
00
A6
92
00
82
00
82
82
00
82
ENDCHAR
STARTCHAR 004E
ENCODING 78
SWIDTH 900 0
DWIDTH 10 0
BBX 7 11 1 0
BITMAP
82
00
A2
92
00
86
00
82
82
00
82
ENDCHAR
STARTCHAR 004F
ENCODING 79
SWIDTH 900 0
DWIDTH 10 0
BBX 7 11 1 0
BITMAP
34
00
82
82
00
82
00
82
82
00
34
ENDCHAR
STARTCHAR 0050
ENCODING 80
SWIDTH 900 0
DWIDTH 10 0
BBX 7 11 1 0
BITMAP
B4
00
82
82
00
B4
00
80
80
00
80
ENDCHAR
STARTCHAR 0051
ENCODING 81
SWIDTH 900 0
DWIDTH 10 0
BBX 7 11 1 0
BITMAP
34
00
82
82
00
82
00
82
84
00
32
ENDCHAR
STARTCHAR 0052
ENCODING 82
SWIDTH 900 0
DWIDTH 10 0
BBX 7 11 1 0
BITMAP
B4
00
82
82
00
B4
00
90
84
00
82
ENDCHAR
STARTCHAR 0053
ENCODING 83
SWIDTH 900 0
DWIDTH 10 0
BBX 7 11 1 0
BITMAP
34
00
82
80
00
34
00
02
82
00
34
ENDCHAR
STARTCHAR 0054
ENCODING 84
SWIDTH 900 0
DWIDTH 10 0
BBX 7 11 1 0
BITMAP
B6
00
10
10
00
10
00
10
10
00
10
ENDCHAR
STARTCHAR 0055
ENCODING 85
SWIDTH 900 0
DWIDTH 10 0
BBX 7 11 1 0
BITMAP
82
00
82
82
00
82
00
82
82
00
34
ENDCHAR
STARTCHAR 0056
ENCODING 86
SWIDTH 900 0
DWIDTH 10 0
BBX 7 11 1 0
BITMAP
82
00
82
82
00
82
00
82
24
00
10
ENDCHAR
STARTCHAR 0057
ENCODING 87
SWIDTH 900 0
DWIDTH 10 0
BBX 7 11 1 0
BITMAP
82
00
82
82
00
82
00
92
A6
00
82
ENDCHAR
STARTCHAR 0058
ENCODING 88
SWIDTH 900 0
DWIDTH 10 0
BBX 7 11 1 0
BITMAP
82
00
82
24
00
10
00
24
82
00
82
ENDCHAR
STARTCHAR 0059
ENCODING 89
SWIDTH 900 0
DWIDTH 10 0
BBX 7 11 1 0
BITMAP
82
00
82
24
00
10
00
10
10
00
10
ENDCHAR
STARTCHAR 005A
ENCODING 90
SWIDTH 900 0
DWIDTH 10 0
BBX 7 11 1 0
BITMAP
B6
00
02
04
00
10
00
20
80
00
B6
ENDCHAR
ENDFONT
